<svg width="22" height="21" viewBox="0 0 22 21" fill="none" xmlns="http://www.w3.org/2000/svg">
<path d="M6.175 16.575C5.01302 16.575 4.0625 17.5255 4.0625 18.6876C4.0625 19.8495 5.01302 20.8001 6.175 20.8001C7.33698 20.8001 8.28755 19.8495 8.28755 18.6876C8.2875 17.5255 7.33693 16.575 6.175 16.575ZM0 0V2.1125H2.1125L5.91515 9.8151L4.32529 12.4026C4.16696 12.6667 4.06123 13.0365 4.06123 13.4063C4.06123 14.8206 5.02734 15.5188 6.3375 15.5188H18.6875V13.4876H6.59613C6.43779 13.4876 6.33207 13.3818 6.33207 13.2235C6.33207 13.1709 6.44414 12.9594 6.44414 12.9594L7.49948 11.2938H15.3682C16.1605 11.2938 16.8474 10.8715 17.2167 10.1849L21.0193 3.64432C21.0821 3.51934 21.125 3.32714 21.125 3.11624C21.125 2.535 20.6495 2.11255 20.0688 2.11255H4.43645L3.43281 0H0ZM16.5749 16.575C15.413 16.575 14.4625 17.5255 14.4625 18.6876C14.4625 19.8495 15.413 20.8001 16.5749 20.8001C17.7369 20.8001 18.6875 19.8495 18.6875 18.6875C18.6875 17.5255 17.7369 16.575 16.5749 16.575Z" fill="white"/>
</svg>
