<svg width="50" height="69" viewBox="0 0 50 69" fill="none" xmlns="http://www.w3.org/2000/svg">
<path d="M15.1344 57.4635C12.8784 57.4635 11.0531 59.1534 11.0531 61.2187C11.0531 63.2841 12.8784 64.9739 15.1344 64.9739C17.3904 64.9739 19.2362 63.2841 19.2362 61.2187C19.2362 59.1534 17.3904 57.4635 15.1344 57.4635ZM2.82886 27.422V31.1772H6.93071L14.314 45.4281L11.5453 50.0282C11.2171 50.554 11.0326 51.1736 11.0326 51.8307C11.0326 53.8961 12.8784 55.5859 15.1344 55.5859H39.7455V51.8307H15.9958C15.7087 51.8307 15.4831 51.6242 15.4831 51.3613L15.5446 51.136L17.3904 48.0755H32.6698C34.208 48.0755 35.5616 47.3057 36.2589 46.1416L43.6012 33.956C43.7653 33.6932 43.8473 33.374 43.8473 33.0548C43.8473 32.0221 42.9244 31.1772 41.7964 31.1772H11.4632L9.53538 27.422H2.82886ZM35.6436 57.4635C33.3876 57.4635 31.5623 59.1534 31.5623 61.2187C31.5623 63.2841 33.3876 64.9739 35.6436 64.9739C37.8997 64.9739 39.7455 63.2841 39.7455 61.2187C39.7455 59.1534 37.8997 57.4635 35.6436 57.4635Z" fill="#F7F7F7"/>
<path d="M44.0976 55.3065C44.0976 59.5092 40.7322 62.9162 36.5807 62.9162C32.4292 62.9162 29.0637 59.5092 29.0637 55.3065C29.0637 51.1038 32.4292 47.6968 36.5807 47.6968C40.7322 47.6968 44.0976 51.1038 44.0976 55.3065Z" fill="#F01818"/>
</svg>
