<svg width="32" height="31" viewBox="0 0 32 31" fill="none" xmlns="http://www.w3.org/2000/svg">
<path d="M9.35385 24.7031C7.59369 24.7031 6.15385 26.1197 6.15385 27.8516C6.15385 29.5834 7.59369 31 9.35385 31C11.114 31 12.5539 29.5834 12.5539 27.8516C12.5538 26.1196 11.1139 24.7031 9.35385 24.7031ZM0 0V3.14843H3.2L8.96023 14.6282L6.55192 18.4846C6.31208 18.8782 6.15192 19.4293 6.15192 19.9805C6.15192 22.0883 7.61539 23.1289 9.6 23.1289H28.3077V20.1016H9.99177C9.75192 20.1016 9.59177 19.944 9.59177 19.708C9.59177 19.6296 9.76154 19.3145 9.76154 19.3145L11.3602 16.8321H23.2797C24.4798 16.8321 25.5203 16.2026 26.0797 15.1794L31.8398 5.43142C31.935 5.24516 32 4.9587 32 4.64439C32 3.77812 31.2797 3.14851 30.4 3.14851H6.72031L5.2 0H0ZM25.1076 24.7031C23.3475 24.7031 21.9076 26.1197 21.9076 27.8516C21.9076 29.5834 23.3475 31 25.1076 31C26.8678 31 28.3077 29.5833 28.3077 27.8515C28.3077 26.1196 26.8678 24.7031 25.1076 24.7031Z" fill="#004E98"/>
</svg>
