<svg width="25" height="18" viewBox="0 0 25 18" fill="none" xmlns="http://www.w3.org/2000/svg">
<path d="M25 5.79389V15.9389C25 17.0611 24 18 22.775 18H2.225C1 18 0 17.0611 0 15.9389V5.79389C0.425 6.20611 0.9 6.59542 1.4 6.91603C3.725 8.35878 6.075 9.80153 8.35 11.313C9.525 12.1145 10.975 13.0763 12.475 13.0763H12.525C14.025 13.0763 15.475 12.1145 16.65 11.313C18.925 9.80153 21.275 8.35878 23.6 6.91603C24.1 6.59542 24.575 6.20611 25 5.79389ZM25 2.03817C25 3.48092 23.85 4.76336 22.625 5.54198C20.45 6.91603 18.25 8.29007 16.075 9.68702C15.175 10.2595 13.65 11.4504 12.525 11.4504H12.475C11.35 11.4504 9.825 10.2595 8.925 9.68702C6.75 8.29007 4.575 6.91603 2.4 5.54198C1.4 4.92366 0 3.48092 0 2.31298C0 1.07634 0.75 0 2.225 0H22.775C23.975 0 25 0.91603 25 2.03817Z" fill="white"/>
</svg>
