<svg width="38" height="27" viewBox="0 0 38 27" fill="none" xmlns="http://www.w3.org/2000/svg">
<path d="M38 8.69084V23.9084C38 25.5916 36.48 27 34.618 27H3.382C1.52 27 0 25.5916 0 23.9084V8.69084C0.646 9.30916 1.368 9.89313 2.128 10.374C5.662 12.5382 9.234 14.7023 12.692 16.9695C14.478 18.1718 16.682 19.6145 18.962 19.6145H19.038C21.318 19.6145 23.522 18.1718 25.308 16.9695C28.766 14.7023 32.338 12.5382 35.872 10.374C36.632 9.89313 37.354 9.30916 38 8.69084ZM38 3.05725C38 5.22137 36.252 7.14504 34.39 8.31298C31.084 10.374 27.74 12.4351 24.434 14.5305C23.066 15.3893 20.748 17.1756 19.038 17.1756H18.962C17.252 17.1756 14.934 15.3893 13.566 14.5305C10.26 12.4351 6.954 10.374 3.648 8.31298C2.128 7.3855 0 5.22137 0 3.46947C0 1.6145 1.14 0 3.382 0H34.618C36.442 0 38 1.37405 38 3.05725Z" fill="#004E98"/>
</svg>
