<svg width="49" height="49" viewBox="0 0 49 49" fill="none" xmlns="http://www.w3.org/2000/svg">
<path d="M42.3967 6.10352e-05H6.60285C2.95627 6.10352e-05 0 2.95621 0 6.60291V42.397C0 46.0437 2.95615 48.9998 6.60285 48.9998H24.2562L24.2863 31.49H19.7372C19.146 31.49 18.6662 31.0119 18.6639 30.4207L18.6421 24.7766C18.6398 24.1822 19.1211 23.6991 19.7155 23.6991H24.2563V18.2454C24.2563 11.9165 28.1216 8.47031 33.7675 8.47031H38.4003C38.9931 8.47031 39.4737 8.95086 39.4737 9.54372V14.3029C39.4737 14.8955 38.9934 15.3759 38.4009 15.3763L35.5578 15.3776C32.4874 15.3776 31.8929 16.8366 31.8929 18.9778V23.6992H38.6396C39.2824 23.6992 39.7812 24.2606 39.7054 24.899L39.0365 30.5431C38.9724 31.0833 38.5144 31.4902 37.9706 31.4902H31.923L31.8929 49.0001H42.3969C46.0435 49.0001 48.9996 46.0439 48.9996 42.3973V6.60291C48.9995 2.95621 46.0434 6.10352e-05 42.3967 6.10352e-05Z" fill="#FF6700"/>
</svg>
