<svg width="49" height="46" viewBox="0 0 49 46" fill="none" xmlns="http://www.w3.org/2000/svg">
<path d="M24.5055 11.0153C17.5531 11.0153 11.9453 16.1913 11.9453 22.6082C11.9453 29.0252 17.5531 34.2012 24.5055 34.2012C31.4578 34.2012 37.0656 29.0252 37.0656 22.6082C37.0656 16.1913 31.4578 11.0153 24.5055 11.0153ZM24.5055 30.1452C20.0127 30.1452 16.3397 26.7652 16.3397 22.6082C16.3397 18.4513 20.0017 15.0713 24.5055 15.0713C29.0092 15.0713 32.6712 18.4513 32.6712 22.6082C32.6712 26.7652 28.9983 30.1452 24.5055 30.1452ZM40.509 10.5411C40.509 12.0444 39.1973 13.2451 37.5794 13.2451C35.9506 13.2451 34.6498 12.0344 34.6498 10.5411C34.6498 9.04784 35.9616 7.83709 37.5794 7.83709C39.1973 7.83709 40.509 9.04784 40.509 10.5411ZM48.8278 13.2855C48.642 9.6633 47.7456 6.45481 44.8707 3.81134C42.0066 1.16787 38.5305 0.340524 34.6061 0.158911C30.5615 -0.0529703 18.4385 -0.0529703 14.3939 0.158911C10.4805 0.330434 7.0043 1.15778 4.12934 3.80125C1.25438 6.44473 0.368935 9.65321 0.17217 13.2754C-0.0573898 17.0085 -0.0573898 28.1979 0.17217 31.931C0.358003 35.5532 1.25438 38.7617 4.12934 41.4052C7.0043 44.0486 10.4695 44.876 14.3939 45.0576C18.4385 45.2695 30.5615 45.2695 34.6061 45.0576C38.5305 44.8861 42.0066 44.0587 44.8707 41.4052C47.7347 38.7617 48.6311 35.5532 48.8278 31.931C49.0574 28.1979 49.0574 17.0186 48.8278 13.2855ZM43.6026 35.9366C42.75 37.9142 41.0993 39.4377 38.9459 40.2348C35.7211 41.4152 28.0691 41.1428 24.5055 41.1428C20.9418 41.1428 13.2789 41.4052 10.0651 40.2348C7.92253 39.4478 6.27189 37.9242 5.40831 35.9366C4.12934 32.9602 4.42448 25.8975 4.42448 22.6082C4.42448 19.319 4.14027 12.2462 5.40831 9.2799C6.26096 7.30234 7.9116 5.77881 10.0651 4.98173C13.2898 3.80125 20.9418 4.07367 24.5055 4.07367C28.0691 4.07367 35.732 3.81134 38.9459 4.98173C41.0884 5.76872 42.739 7.29225 43.6026 9.2799C44.8816 12.2563 44.5864 19.319 44.5864 22.6082C44.5864 25.8975 44.8816 32.9703 43.6026 35.9366Z" fill="#FF6700"/>
</svg>
