<svg width="54" height="40" viewBox="0 0 54 40" fill="none" xmlns="http://www.w3.org/2000/svg">
<path d="M16.9819 39.7905C37.3594 39.7905 48.5049 24.4804 48.5049 11.2037C48.5049 10.7687 48.5049 10.3359 48.4726 9.90296C50.6406 8.48132 52.5123 6.72103 54 4.70446C51.978 5.517 49.833 6.04987 47.6366 6.28528C49.9494 5.02969 51.6804 3.05486 52.5074 0.728304C50.3326 1.89856 47.9533 2.72328 45.4722 3.16687C43.8018 1.55615 41.5926 0.489591 39.1864 0.132226C36.7802 -0.225139 34.3112 0.146617 32.1614 1.18997C30.0117 2.23332 28.3011 3.89009 27.2942 5.90392C26.2874 7.91775 26.0406 10.1764 26.5918 12.3302C22.187 12.13 17.8779 11.0919 13.9442 9.28341C10.0105 7.47493 6.54019 4.93647 3.75848 1.83281C2.34172 4.0446 1.90777 6.66291 2.54499 9.15465C3.1822 11.6464 4.84268 13.8242 7.18833 15.2447C5.42526 15.1973 3.70064 14.766 2.16 13.9872V14.1144C2.16067 16.4341 3.04614 18.6822 4.6662 20.4773C6.28627 22.2724 8.54119 23.5041 11.0485 23.9634C9.41739 24.3668 7.70603 24.4257 6.04589 24.1357C6.75383 26.1321 8.13214 27.8779 9.98802 29.1289C11.8439 30.3799 14.0846 31.0736 16.3966 31.113C12.4735 33.9091 7.62709 35.427 2.63735 35.4224C1.75586 35.4209 0.875237 35.3724 0 35.2774C5.06658 38.226 10.9618 39.79 16.9819 39.7827" fill="#FF6700"/>
</svg>
