<svg width="47" height="45" viewBox="0 0 47 45" fill="none" xmlns="http://www.w3.org/2000/svg">
<path d="M22.3511 0.026024C9.83729 0.591894 -0.037853 10.4893 0.000109083 22.3872C0.0116677 26.011 0.932844 29.4314 2.55785 32.4537L0.0628882 43.9554C-0.0720756 44.5776 0.518774 45.1223 1.16957 44.976L13.0368 42.3058C16.0856 43.7481 19.5102 44.5812 23.1345 44.6337C35.9248 44.8193 46.5896 35.1742 46.9883 23.0317C47.4156 10.0157 36.1042 -0.596024 22.3511 0.026024ZM36.5112 34.6751C33.0358 37.9757 28.4149 39.7934 23.5 39.7934C20.6222 39.7934 17.8669 39.1802 15.3105 37.9708L13.6579 37.189L6.38205 38.8261L7.91357 31.7654L7.09937 30.2512C5.77228 27.7829 5.09939 25.1138 5.09939 22.3181C5.09939 17.6503 7.01336 13.262 10.4888 9.96125C13.9331 6.69011 18.6293 4.8428 23.5004 4.8428C28.4153 4.84291 33.0359 6.66063 36.5113 9.96114C39.9867 13.2618 41.9007 17.6501 41.9008 22.3178C41.9007 26.944 39.9555 31.404 36.5112 34.6751Z" fill="#075E54"/>
<path d="M34.9048 27.1584L30.3528 25.9171C29.7544 25.754 29.1099 25.9152 28.6739 26.3372L27.5607 27.4142C27.0914 27.8684 26.3792 28.0143 25.7579 27.7756C23.6046 26.948 19.075 23.1232 17.9182 21.21C17.5845 20.6581 17.6397 19.9682 18.0495 19.4646L19.0213 18.2706C19.4021 17.8028 19.4824 17.1745 19.2306 16.6337L17.3155 12.5201C16.8568 11.5348 15.5311 11.248 14.665 11.9437C13.3945 12.9641 11.8871 14.5148 11.7039 16.2328C11.3808 19.2617 12.7486 23.0798 17.9209 27.6645C23.8962 32.961 28.6812 33.6608 31.7968 32.944C33.5639 32.5375 34.976 30.9079 35.8673 29.5737C36.4749 28.6639 35.9951 27.4558 34.9048 27.1584Z" fill="#075E54"/>
</svg>
