<svg width="74" height="77" viewBox="0 0 74 77" fill="none" xmlns="http://www.w3.org/2000/svg">
<path d="M35.1911 0.04453C15.4885 1.0128 -0.0595984 17.9484 0.000171747 38.3071C0.0183704 44.5078 1.46873 50.3605 4.02725 55.5318L0.0990155 75.2126C-0.113481 76.2772 0.816793 77.2093 1.84145 76.9589L20.526 72.3899C25.3263 74.8579 30.7181 76.2834 36.4245 76.3733C56.5624 76.6908 73.3539 60.187 73.9815 39.4098C74.6544 17.138 56.845 -1.01986 35.1911 0.04453ZM57.4857 59.3329C52.0138 64.9806 44.7384 68.0909 37 68.0909C32.4689 68.0909 28.1309 67.0416 24.1059 64.9723L21.5039 63.6345L10.0483 66.4358L12.4597 54.3542L11.1777 51.7632C9.08827 47.5397 8.02882 42.9725 8.02882 38.1888C8.02882 30.2017 11.0423 22.6927 16.5142 17.0448C21.9372 11.4475 29.3313 8.28658 37.0006 8.28658C44.7389 8.28676 52.014 11.3971 57.4859 17.0446C62.9578 22.6923 65.9713 30.2013 65.9714 38.1883C65.9713 46.1042 62.9087 53.7358 57.4857 59.3329Z" fill="#FF6700"/>
<path d="M55.0421 46.696L47.7885 44.5715C46.8349 44.2923 45.8079 44.5682 45.1131 45.2904L43.3392 47.1338C42.5913 47.9111 41.4564 48.1609 40.4664 47.7524C37.0351 46.3359 29.8171 39.7896 27.9737 36.5152C27.4419 35.5707 27.5299 34.3898 28.1829 33.5279L29.7315 31.4843C30.3382 30.6836 30.4663 29.6083 30.065 28.6827L27.0133 21.6423C26.2823 19.956 24.1697 19.4651 22.7896 20.6557C20.7651 22.4022 18.3631 25.0563 18.0711 27.9966C17.5562 33.1806 19.7358 39.7154 27.9779 47.5621C37.4997 56.6272 45.1248 57.8248 50.0894 56.5981C52.9053 55.9024 55.1557 53.1133 56.5759 50.8297C57.5442 49.2727 56.7796 47.2049 55.0421 46.696Z" fill="#FF6700"/>
</svg>
