<svg width="64" height="41" viewBox="0 0 64 41" fill="none" xmlns="http://www.w3.org/2000/svg">
<path d="M62.603 6.35382C62.2348 5.12628 61.5179 4.00723 60.5233 3.10787C59.5288 2.2085 58.2914 1.56013 56.934 1.22718C51.964 3.23414e-07 31.96 0 31.96 0C31.96 0 11.955 0.0361735 6.984 1.26335C5.6266 1.5963 4.38916 2.24468 3.39465 3.14404C2.40014 4.04341 1.68318 5.16245 1.315 6.39C0 10.8854 0 20.2841 0 20.2841C0 20.2841 0 29.6828 1.356 34.2144C1.72418 35.442 2.44114 36.561 3.43565 37.4604C4.43016 38.3597 5.6676 39.0081 7.025 39.3411C11.995 40.5682 32 40.5682 32 40.5682C32 40.5682 52.005 40.5682 56.976 39.342C58.3334 39.009 59.5708 38.3606 60.5653 37.4613C61.5599 36.5619 62.2768 35.4429 62.645 34.2153C64 29.7199 64 20.2841 64 20.2841C64 20.2841 63.96 10.8854 62.603 6.35382Z" fill="#FF6700"/>
</svg>
